<svg width="224" height="212" viewBox="0 0 224 212" fill="none" xmlns="http://www.w3.org/2000/svg">
<path fill-rule="evenodd" clip-rule="evenodd" d="M171.517 30.7791C174.336 44.1161 175.372 44.9504 189.696 45.4161C217.491 46.3236 224.47 51.7372 223.09 71.3373C221.507 93.7533 200.779 122.913 177.706 135.173C168.97 139.817 149.555 150.779 134.566 159.538L107.308 175.462C63.3515 280.585 68.1831 268.515 22.3217 378.194L11.4012 373.627L0.480707 369.061C33.8043 289.367 -10.3669 395.003 84.9998 166.931L79.2704 141.371C76.1231 127.309 70.4655 107.849 66.6991 98.1279C51.4928 58.842 71.4769 -5.92432 96.6521 1.06432C102.358 2.64888 112.081 9.28255 118.26 15.81C124.44 22.3374 129.96 27.3503 130.523 26.9483C156.61 8.38949 166.982 9.35701 171.517 30.7791ZM111.44 109.122C107.193 91.7636 115.481 63.167 128.926 48.7981C151.293 24.8957 161.679 31.6016 157.954 67.5344C156.303 83.4739 153.247 90.5977 142.742 103.031C124.86 124.182 115.568 125.994 111.44 109.122ZM174.19 77.0009C176.216 63.4174 178.143 60.7487 186.195 60.368C206.551 59.4037 209.923 64.5568 201.674 84.0032C192.779 104.969 171.054 125.015 151.586 130.225L138.306 133.78L145.525 125.414C166.452 101.151 171.98 91.8097 174.19 77.0009ZM86.2021 102.886C76.2376 85.368 75.2479 55.8245 83.9246 34.7672C90.1294 19.7072 92.9237 16.9276 99.1226 19.6289C115.952 26.9758 118.579 35.6059 108.188 49.4481C99.2249 61.3832 96.4552 71.9097 93.8837 103.821L92.9989 114.835L86.2021 102.886Z" fill="white"/>
</svg>
